HIERARCHY
ROOT Hips
{
	OFFSET 0.000000 0.000000 0.000000
	CHANNELS 6 Xposition Yposition Zposition Zrotation Yrotation Xrotation 
	JOINT LeftUpLeg_virtual
	{
		OFFSET 0.000000 0.000000 0.000000
		CHANNELS 3 Zrotation Yrotation Xrotation
		JOINT LeftUpLeg
		{
			OFFSET 10.205400 -3.823500 0.155100
			CHANNELS 3 Zrotation Yrotation Xrotation
			JOINT LeftLeg
			{
				OFFSET 0.708757 -12.982077 0.567790
				CHANNELS 3 Zrotation Yrotation Xrotation
				JOINT LeftFoot
				{
					OFFSET -0.708756 -10.717838 -2.184338
					CHANNELS 3 Zrotation Yrotation Xrotation
					JOINT LeftToeBase
					{
						OFFSET 0.108149 -7.191104 7.560241
						CHANNELS 3 Zrotation Yrotation Xrotation
						End Site
						{
							OFFSET 0.000000 0.000000 0.000000
						}
					}
				}
			}
		}
	}
	JOINT RightUpLeg_virtual
	{
		OFFSET 0.000000 0.000000 0.000000
		CHANNELS 3 Zrotation Yrotation Xrotation
		JOINT RightUpLeg
		{
			OFFSET -10.205400 -3.823500 0.005500
			CHANNELS 3 Zrotation Yrotation Xrotation
			JOINT RightLeg
			{
				OFFSET -0.708756 -12.982134 0.610632
				CHANNELS 3 Zrotation Yrotation Xrotation
				JOINT RightFoot
				{
					OFFSET 0.708754 -10.717769 -1.945823
					CHANNELS 3 Zrotation Yrotation Xrotation
					JOINT RightToeBase
					{
						OFFSET -0.108140 -7.191069 7.372968
						CHANNELS 3 Zrotation Yrotation Xrotation
						End Site
						{
							OFFSET 0.000000 0.000000 0.000000
						}
					}
				}
			}
		}
	}
	JOINT Spine_virtual
	{
		OFFSET 0.000000 0.000000 0.000000
		CHANNELS 3 Zrotation Yrotation Xrotation
		JOINT Spine
		{
			OFFSET 0.000000 6.876099 0.125700
			CHANNELS 3 Zrotation Yrotation Xrotation
			JOINT Spine1
			{
				OFFSET 0.000000 8.022060 0.146608
				CHANNELS 3 Zrotation Yrotation Xrotation
				JOINT Spine2
				{
					OFFSET 0.000000 9.168068 0.167552
					CHANNELS 3 Zrotation Yrotation Xrotation
					JOINT Neck_virtual
					{
						OFFSET 0.000000 0.000000 0.000000
						CHANNELS 3 Zrotation Yrotation Xrotation
						JOINT Neck
						{
							OFFSET 0.000000 10.314075 0.188496
							CHANNELS 3 Zrotation Yrotation Xrotation
							JOINT Head
							{
								OFFSET 0.000000 7.643700 -2.377400
								CHANNELS 3 Zrotation Yrotation Xrotation
								End Site
								{
									OFFSET 0.000000 0.000000 0.000000
								}
							}
						}
					}
					JOINT LeftShoulder_virtual
					{
						OFFSET 0.000000 0.000000 0.000000
						CHANNELS 3 Zrotation Yrotation Xrotation
						JOINT LeftShoulder
						{
							OFFSET 4.392200 8.824978 0.174984
							CHANNELS 3 Zrotation Yrotation Xrotation
							JOINT LeftArm
							{
								OFFSET 8.771219 -2.981674 -0.026999
								CHANNELS 3 Zrotation Yrotation Xrotation
								JOINT LeftForeArm
								{
									OFFSET 8.512804 0.000000 -0.000000
									CHANNELS 3 Zrotation Yrotation Xrotation
									JOINT LeftHand
									{
										OFFSET 18.484802 0.000000 -0.000000
										CHANNELS 3 Zrotation Yrotation Xrotation
										End Site
										{
											OFFSET 0.000000 0.000000 0.000000
										}
									}
								}
							}
						}
					}
					JOINT RightShoulder_virtual
					{
						OFFSET 0.000000 0.000000 0.000000
						CHANNELS 3 Zrotation Yrotation Xrotation
						JOINT RightShoulder
						{
							OFFSET -4.392200 8.824993 0.141379
							CHANNELS 3 Zrotation Yrotation Xrotation
							JOINT RightArm
							{
								OFFSET -8.771282 -2.981682 -0.094208
								CHANNELS 3 Zrotation Yrotation Xrotation
								JOINT RightForeArm
								{
									OFFSET -8.494598 0.000000 0.000000
									CHANNELS 3 Zrotation Yrotation Xrotation
									JOINT RightHand
									{
										OFFSET -18.483803 0.000000 0.000001
										CHANNELS 3 Zrotation Yrotation Xrotation
										End Site
										{
											OFFSET 0.000000 0.000000 0.000000
										}
									}
								}
							}
						}
					}
				}
			}
		}
	}
}
MOTION
Frames: 8
Frame Time: 0.033333
-7.840905 36.207569 -21.689001 -179.852227 -3.405975 -179.260159 -2.035590 -2.748766 16.875970 -1.752340 -2.898342 -14.304758 4.060546 1.311554 18.601361 -2.383275 -1.991452 7.087437 0.000000 0.000000 0.000000 4.441125 -1.194687 16.628398 -2.740691 0.601207 -15.838684 -5.051634 4.969532 18.375225 11.493760 -0.325540 5.012445 0.000000 0.000000 0.000000 1.132640 1.313808 1.937884 0.492805 -1.211251 -13.743566 0.063098 -3.020342 6.660441 -0.016835 0.080279 0.092747 -0.355362 -0.716168 8.133073 -1.454886 2.887700 14.621932 0.000000 0.000000 0.000000 1.414892 -0.168204 5.274604 -17.098754 -6.833913 3.723595 -41.860505 9.231483 12.225427 -0.319350 -44.140268 2.101814 0.000000 0.000000 0.000000 -2.931904 0.806293 4.776262 28.039486 6.539390 7.985421 44.316993 -14.560462 1.852096 -3.416564 31.869461 -2.892417 0.000000 0.000000 0.000000 
-7.820753 36.191769 -21.696140 -179.696130 -3.304003 -178.961502 -2.181142 -2.630445 17.197793 -1.563782 -3.608218 -13.933774 3.906648 0.338580 18.831883 -2.772274 -2.366921 7.386577 0.000000 0.000000 0.000000 4.651764 -1.700982 16.805520 -2.807293 0.314234 -15.632262 -5.003099 4.685881 18.551086 10.986259 -0.643747 5.115636 0.000000 0.000000 0.000000 1.178275 1.296883 1.553835 0.728204 -1.052680 -13.728811 0.019439 -3.001618 6.720305 -0.084698 0.086692 0.058927 -0.432540 -0.852556 8.122441 -1.508881 2.840112 14.510855 0.000000 0.000000 0.000000 1.459823 -0.164426 5.269333 -17.114755 -6.847090 3.778419 -42.276371 9.329696 12.705559 -0.248925 -44.171346 2.028861 0.000000 0.000000 0.000000 -2.976944 0.867948 4.779585 28.133921 6.646694 8.061443 44.407066 -14.489961 3.605799 -3.219860 32.213136 -2.727668 0.000000 0.000000 0.000000 
-7.803689 36.182549 -21.733007 -179.710091 -3.310829 -178.953511 -2.191206 -2.624833 17.235733 -1.475456 -3.679057 -13.927859 3.819957 0.338142 18.804776 -2.811236 -2.359101 7.315998 0.000000 0.000000 0.000000 4.622571 -1.768143 16.850350 -2.711606 0.260896 -15.668459 -5.027671 4.772168 18.608519 11.029675 -0.723910 5.146251 0.000000 0.000000 0.000000 1.179410 1.213216 1.634824 0.773145 -1.017128 -13.904822 0.012281 -3.056857 6.613506 -0.073018 0.032246 0.088374 -0.471671 -0.803311 8.224901 -1.421271 2.868231 14.518510 0.000000 0.000000 0.000000 1.404369 -0.038312 5.268243 -17.283859 -6.754034 3.857648 -42.737843 9.500408 13.686446 -0.178953 -44.016294 1.955753 0.000000 0.000000 0.000000 -3.018478 0.946042 4.888668 28.200284 6.973292 8.108569 44.329765 -14.490552 6.879226 -3.029893 32.927048 -2.647999 0.000000 0.000000 0.000000 
-7.790449 36.170849 -21.791248 -179.741523 -3.385192 -178.926026 -2.208788 -2.566248 17.316946 -1.346929 -3.881264 -13.963058 3.690717 0.350475 18.758141 -2.863937 -2.378666 7.235799 0.000000 0.000000 0.000000 4.580095 -1.783264 16.971157 -2.650963 0.202809 -15.745335 -4.937733 4.826760 18.707572 11.067511 -0.902484 5.195339 0.000000 0.000000 0.000000 1.134719 1.275472 1.564649 0.764602 -0.908654 -13.963551 0.055654 -3.016527 6.678513 -0.051310 0.084792 0.074430 -0.367121 -0.927182 8.295757 -1.239033 2.929303 14.563369 0.000000 0.000000 0.000000 1.432680 -0.116896 5.379930 -17.429710 -6.912037 3.885964 -43.296993 9.507790 15.107125 -0.134044 -43.684920 1.892894 0.000000 0.000000 0.000000 -3.003002 0.883036 4.871372 28.224650 7.141236 8.284379 44.103874 -14.505203 11.020300 -2.867773 33.869399 -2.566281 0.000000 0.000000 0.000000 
-7.782786 36.162693 -21.849964 -179.708574 -3.505338 -178.909620 -2.192255 -2.490506 17.444455 -1.116168 -4.049441 -14.050978 3.550900 0.400811 18.708838 -2.874919 -2.408863 7.170825 0.000000 0.000000 0.000000 4.626460 -1.788275 17.145472 -2.468500 0.089177 -15.887633 -5.133875 4.881988 18.830567 11.038803 -1.021445 5.289722 0.000000 0.000000 0.000000 1.168127 1.291350 1.530379 0.745251 -0.911251 -14.022268 0.103093 -3.063222 6.718187 -0.043255 0.064532 0.051260 -0.365421 -0.887908 8.316572 -1.095235 2.954312 14.625494 0.000000 0.000000 0.000000 1.463998 0.021553 5.357380 -17.609689 -7.068271 3.942722 -43.776287 9.597194 16.779671 -0.172493 -43.459001 1.957665 0.000000 0.000000 0.000000 -2.993179 0.903074 4.877246 28.247127 7.413667 8.476260 43.915808 -14.612126 15.154235 -2.671584 34.951335 -2.403539 0.000000 0.000000 0.000000 
-7.769058 36.162750 -21.881147 -179.765975 -3.625610 -178.909183 -2.235805 -2.436119 17.616463 -0.906755 -4.282777 -14.198177 3.348218 0.484308 18.669419 -2.890284 -2.428769 7.157898 0.000000 0.000000 0.000000 4.609542 -1.782568 17.335700 -2.457248 0.032176 -16.115288 -5.019132 4.974734 19.007141 11.146222 -1.264483 5.341044 0.000000 0.000000 0.000000 1.164849 1.323283 1.781994 0.651150 -0.904549 -14.264636 0.177393 -3.103360 6.645538 -0.022971 0.059952 0.148334 -0.307476 -0.905786 8.398442 -0.902177 3.017306 14.670406 0.000000 0.000000 0.000000 1.497649 -0.090815 5.343321 -17.804181 -7.023479 4.041965 -44.072223 9.805922 18.298429 -0.192934 -43.534946 2.037136 0.000000 0.000000 0.000000 -2.942501 0.939101 4.977447 28.211924 7.489407 8.658853 43.594379 -14.884917 18.492532 -2.713767 36.091143 -2.502245 0.000000 0.000000 0.000000 
-7.762495 36.175758 -21.879179 -179.750225 -3.776929 -178.911696 -2.243106 -2.421094 17.818155 -0.636700 -4.411962 -14.439245 3.125086 0.605896 18.642902 -2.868162 -2.409846 7.208758 0.000000 0.000000 0.000000 4.686202 -1.798360 17.534885 -2.383106 -0.039455 -16.445079 -5.163448 5.134764 19.192084 11.181225 -1.447738 5.419144 0.000000 0.000000 0.000000 1.241554 1.323291 1.994754 0.519844 -0.865469 -14.328352 0.242554 -3.056795 6.569329 -0.014686 0.102695 0.109458 -0.259403 -0.917911 8.434802 -0.734891 3.042771 14.601201 0.000000 0.000000 0.000000 1.563102 -0.043648 5.332724 -17.900688 -7.303638 4.094193 -44.198082 10.014395 19.562229 -0.230176 -43.509241 2.169855 0.000000 0.000000 0.000000 -2.913131 0.795722 4.942390 28.147911 7.421047 8.774449 43.305974 -15.317736 20.551421 -2.675957 37.032374 -2.510162 0.000000 0.000000 0.000000 
-7.758356 36.199558 -21.825819 -179.777218 -3.944333 -178.933293 -2.262590 -2.410649 18.016697 -0.399474 -4.415423 -14.770730 2.836473 0.741861 18.651399 -2.887968 -2.374264 7.330182 0.000000 0.000000 0.000000 4.787010 -1.801193 17.750637 -2.301385 -0.120909 -16.875632 -5.329421 5.413529 19.410129 11.251275 -1.670075 5.512629 0.000000 0.000000 0.000000 1.322364 1.210614 2.232877 0.370576 -0.824026 -14.343640 0.297428 -2.995267 6.561034 -0.027509 0.170014 0.061971 -0.184299 -0.959767 8.504268 -0.576512 3.070122 14.474887 0.000000 0.000000 0.000000 1.608068 -0.171255 5.472432 -17.938662 -7.201707 4.055174 -44.003627 10.531084 20.164040 -0.223662 -43.932682 2.295716 0.000000 0.000000 0.000000 -2.838324 0.848194 5.028647 28.100566 7.152119 8.883564 42.962115 -15.846867 21.180019 -2.838650 37.864670 -2.701432 0.000000 0.000000 0.000000 
